<svg xmlns="http://www.w3.org/2000/svg" xmlns:xlink="http://www.w3.org/1999/xlink" width="640" height="400" fill="currentColor" class="plot" font-family="system-ui, sans-serif" font-size="10" text-anchor="middle" viewBox="0 0 640 400"><style>:where(.plot){--plot-background:white;display:block;height:intrinsic;max-width:100%}:where(.plot text),:where(.plot tspan){white-space:pre}</style><g fill="none" stroke-miterlimit="1" stroke-opacity=".5" stroke-width="1.5" aria-label="link"><path stroke="#a463f2" d="M35,154.625C156,154.625,156,20,277,20" transform="translate(0.5,0.5)"/><path stroke="#a463f2" d="M35,154.625C156,154.625,156,109.75,277,109.75" transform="translate(0.5,0.5)"/><path stroke="#a463f2" d="M35,154.625C156,154.625,156,199.5,277,199.5" transform="translate(0.5,0.5)"/><path stroke="#a463f2" d="M35,154.625C156,154.625,156,289.25,277,289.25" transform="translate(0.5,0.5)"/><path stroke="#a463f2" d="M277,289.25C398,289.25,398,199.5,519,199.5" transform="translate(0.5,0.5)"/><path stroke="#a463f2" d="M277,289.25C398,289.25,398,289.25,519,289.25" transform="translate(0.5,0.5)"/><path stroke="#a463f2" d="M277,289.25C398,289.25,398,379,519,379" transform="translate(0.5,0.5)"/></g><g aria-label="dot" transform="translate(0.5,0.5)"><circle cx="35" cy="154.625" r="3" fill="#ff725c"><title>/Chaos</title></circle><circle cx="277" cy="20" r="3" fill="#efb118"><title>/Chaos/Eros</title></circle><circle cx="277" cy="109.75" r="3" fill="#4269d0"><title>/Chaos/Erebus</title></circle><circle cx="277" cy="199.5" r="3" fill="#ff8ab7"><title>/Chaos/Tartarus</title></circle><circle cx="277" cy="289.25" r="3" fill="#ff725c"><title>/Chaos/Gaia</title></circle><circle cx="519" cy="199.5" r="3" fill="#ff725c"><title>/Chaos/Gaia/Mountains</title></circle><circle cx="519" cy="289.25" r="3" fill="#6cc5b0"><title>/Chaos/Gaia/Pontus</title></circle><circle cx="519" cy="379" r="3" fill="#3ca951"><title>/Chaos/Gaia/Uranus</title></circle></g><g stroke="var(--plot-background)" stroke-linejoin="round" stroke-width="3" aria-label="text" paint-order="stroke" text-anchor="start"><text y=".32em" fill="#efb118" transform="translate(6.5,0.5) translate(277,20)">Eros<title>/Chaos/Eros</title></text><text y=".32em" fill="#4269d0" transform="translate(6.5,0.5) translate(277,109.75)">Erebus<title>/Chaos/Erebus</title></text><text y=".32em" fill="#ff8ab7" transform="translate(6.5,0.5) translate(277,199.5)">Tartarus<title>/Chaos/Tartarus</title></text><text y=".32em" fill="#ff725c" transform="translate(6.5,0.5) translate(519,199.5)">Mountains<title>/Chaos/Gaia/Mountains</title></text><text y=".32em" fill="#6cc5b0" transform="translate(6.5,0.5) translate(519,289.25)">Pontus<title>/Chaos/Gaia/Pontus</title></text><text y=".32em" fill="#3ca951" transform="translate(6.5,0.5) translate(519,379)">Uranus<title>/Chaos/Gaia/Uranus</title></text></g><g stroke="var(--plot-background)" stroke-linejoin="round" stroke-width="3" aria-label="text" paint-order="stroke" text-anchor="end"><text y=".32em" fill="#ff725c" transform="translate(-5.5,0.5) translate(35,154.625)">Chaos<title>/Chaos</title></text><text y=".32em" fill="#ff725c" transform="translate(-5.5,0.5) translate(277,289.25)">Gaia<title>/Chaos/Gaia</title></text></g></svg>