<svg xmlns="http://www.w3.org/2000/svg" xmlns:xlink="http://www.w3.org/1999/xlink" width="640" height="400" fill="currentColor" class="plot" font-family="system-ui, sans-serif" font-size="10" text-anchor="middle" viewBox="0 0 640 400"><style>:where(.plot){--plot-background:white;display:block;height:intrinsic;max-width:100%}:where(.plot text),:where(.plot tspan){white-space:pre}</style><g fill="none" stroke="currentColor" aria-hidden="true" aria-label="y-axis tick"><path d="M0,0L-6,0" transform="translate(0,0.5) translate(40,368)"/><path d="M0,0L-6,0" transform="translate(0,0.5) translate(40,325.197)"/><path d="M0,0L-6,0" transform="translate(0,0.5) translate(40,282.395)"/><path d="M0,0L-6,0" transform="translate(0,0.5) translate(40,239.592)"/><path d="M0,0L-6,0" transform="translate(0,0.5) translate(40,196.79)"/><path d="M0,0L-6,0" transform="translate(0,0.5) translate(40,153.987)"/><path d="M0,0L-6,0" transform="translate(0,0.5) translate(40,111.185)"/><path d="M0,0L-6,0" transform="translate(0,0.5) translate(40,68.382)"/></g><g aria-label="y-axis tick label" font-variant="tabular-nums" text-anchor="end"><text y=".32em" transform="translate(-8.5,0.5) translate(40,368)">0</text><text y=".32em" transform="translate(-8.5,0.5) translate(40,325.197)">20</text><text y=".32em" transform="translate(-8.5,0.5) translate(40,282.395)">40</text><text y=".32em" transform="translate(-8.5,0.5) translate(40,239.592)">60</text><text y=".32em" transform="translate(-8.5,0.5) translate(40,196.79)">80</text><text y=".32em" transform="translate(-8.5,0.5) translate(40,153.987)">100</text><text y=".32em" transform="translate(-8.5,0.5) translate(40,111.185)">120</text><text y=".32em" transform="translate(-8.5,0.5) translate(40,68.382)">140</text></g><g aria-label="waffle"><pattern id="plot-pattern-1" width="34.242" height="34.242" patternUnits="userSpaceOnUse"><rect width="33.242" height="33.242" x=".5" y=".5" fill="#9E0142"/></pattern><pattern id="plot-pattern-2" width="34.242" height="34.242" patternUnits="userSpaceOnUse"><rect width="33.242" height="33.242" x=".5" y=".5" fill="#E0514A"/></pattern><pattern id="plot-pattern-3" width="34.242" height="34.242" patternUnits="userSpaceOnUse"><rect width="33.242" height="33.242" x=".5" y=".5" fill="#FBA05C"/></pattern><pattern id="plot-pattern-4" width="34.242" height="34.242" patternUnits="userSpaceOnUse"><rect width="33.242" height="33.242" x=".5" y=".5" fill="#F2F9AB"/></pattern><pattern id="plot-pattern-5" width="34.242" height="34.242" patternUnits="userSpaceOnUse"><rect width="33.242" height="33.242" x=".5" y=".5" fill="#62B8AA"/></pattern><pattern id="plot-pattern-6" width="34.242" height="34.242" patternUnits="userSpaceOnUse"><rect width="33.242" height="33.242" x=".5" y=".5" fill="#5E4FA2"/></pattern><pattern id="plot-pattern-7" width="34.242" height="34.242" patternUnits="userSpaceOnUse"><rect width="33.242" height="33.242" x=".5" y=".5" fill="#F6824F"/></pattern><path fill="url(#plot-pattern-1)" d="M0,0L0,0L0,0L0,0L0,0L34.242,0L34.242,0L34.242,0L34.242,-34.242L0,-34.242Z" transform="translate(65.564,368)"/><path fill="url(#plot-pattern-2)" d="M34.242,-34.242L34.242,0L34.242,0L34.242,0L171.21,0L171.21,0L171.21,0L171.21,-34.242Z" transform="translate(65.564,368)"/><path fill="url(#plot-pattern-3)" d="M171.21,-34.242L171.21,0L171.21,0L171.21,0L479.389,0L479.389,0L479.389,0L479.389,-34.242Z" transform="translate(65.564,368)"/><path fill="url(#plot-pattern-4)" d="M0,-34.242L479.389,-34.242L479.389,0L479.389,0L479.389,0L547.873,0L547.873,-68.484L205.452,-68.484L205.452,-68.484L205.452,-68.484L205.452,-102.726L0,-102.726Z" transform="translate(65.564,368)"/><path fill="url(#plot-pattern-5)" d="M0,-102.726L205.452,-102.726L205.452,-68.484L205.452,-68.484L205.452,-68.484L547.873,-68.484L547.873,-171.21L136.968,-171.21L136.968,-171.21L136.968,-171.21L136.968,-205.452L0,-205.452Z" transform="translate(65.564,368)"/><path fill="url(#plot-pattern-6)" d="M0,-205.452L136.968,-205.452L136.968,-171.21L136.968,-171.21L136.968,-171.21L547.873,-171.21L547.873,-308.178L205.452,-308.178L205.452,-308.178L205.452,-308.178L205.452,-342.42L0,-342.42Z" transform="translate(65.564,368)"/><path fill="url(#plot-pattern-7)" d="M205.452,-342.42L205.452,-308.178L205.452,-308.178L205.452,-308.178L445.146,-308.178L445.146,-308.178L445.146,-308.178L445.146,-342.42Z" transform="translate(65.564,368)"/></g></svg>